M48
; DRILL file {KiCad 9.0.7} date 2026-04-12T01:51:50+0400
; FORMAT={-:-/ absolute / metric / decimal}
; #@! TF.CreationDate,2026-04-12T01:51:50+04:00
; #@! TF.GenerationSoftware,Kicad,Pcbnew,9.0.7
; #@! TF.FileFunction,Plated,1,2,PTH
FMAT,2
METRIC
; #@! TA.AperFunction,Plated,PTH,ComponentDrill
T1C0.500
; #@! TA.AperFunction,Plated,PTH,ComponentDrill
T2C0.700
; #@! TA.AperFunction,Plated,PTH,ComponentDrill
T3C0.780
; #@! TA.AperFunction,Plated,PTH,ComponentDrill
T4C0.800
; #@! TA.AperFunction,Plated,PTH,ComponentDrill
T5C0.900
; #@! TA.AperFunction,Plated,PTH,ComponentDrill
T6C1.100
; #@! TA.AperFunction,Plated,PTH,ComponentDrill
T7C1.500
%
G90
G05
T1
X232.09Y-68.32
X233.09Y-68.32
T2
X200.89Y-74.6
X202.1Y-92.005
X208.51Y-74.6
X208.7Y-88.195
X209.2Y-60.695
X212.995Y-107.3
X215.8Y-64.505
X216.805Y-100.7
X221.64Y-81.65
X222.715Y-50.98
X226.525Y-57.58
X229.18Y-105.91
X229.18Y-113.53
X229.26Y-81.65
X231.85Y-82.17
X231.85Y-89.79
X237.1Y-49.49
X237.1Y-57.11
X242.695Y-103.8
X246.505Y-110.4
X248.095Y-62.8
X251.8Y-96.595
X251.905Y-56.2
X255.1Y-73.105
X256.59Y-85.2
X258.4Y-100.405
X261.7Y-69.295
X264.21Y-85.2
T3
X236.11Y-76.77
X236.11Y-79.31
X236.11Y-81.85
X236.11Y-84.39
X236.11Y-86.93
X236.11Y-89.47
X236.11Y-92.01
X236.11Y-94.55
X244.05Y-76.77
X244.05Y-79.31
X244.05Y-81.85
X244.05Y-84.39
X244.05Y-86.93
X244.05Y-89.47
X244.05Y-92.01
X244.05Y-94.55
T4
X221.34Y-71.155
X221.34Y-78.775
X222.39Y-68.48
X223.88Y-71.155
X223.88Y-78.775
X226.42Y-71.155
X226.42Y-78.775
X227.39Y-68.48
X228.96Y-71.155
X228.96Y-78.775
X237.68Y-97.74
X237.91Y-69.16
X239.91Y-69.16
X241.91Y-69.16
X242.68Y-97.74
T5
X202.225Y-81.0
X204.765Y-81.0
X205.725Y-66.0
X206.225Y-96.0
X208.265Y-66.0
X208.765Y-96.0
X217.725Y-56.0
X218.225Y-107.5
X220.265Y-56.0
X220.765Y-107.5
X230.725Y-52.5
X233.225Y-110.5
X233.265Y-52.5
X235.765Y-110.5
X243.96Y-55.5
X246.5Y-55.5
X248.725Y-105.5
X251.265Y-105.5
X255.225Y-65.0
X257.765Y-65.0
X258.225Y-94.0
X260.725Y-79.0
X260.765Y-94.0
X263.265Y-79.0
T6
X222.12Y-85.22
X222.12Y-89.72
X228.62Y-85.22
X228.62Y-89.72
T7
X235.81Y-69.16
X244.01Y-69.16
M30
